<svg xmlns="http://www.w3.org/2000/svg" xmlns:xlink="http://www.w3.org/1999/xlink" viewBox="0 0 666.67 187.42"><defs><style>.cls-1{fill:#662d91;}.cls-2,.cls-3{fill:#fff;}.cls-3{font-size:23.33px;font-family:HurmeGeometricSans1-SemiBold, "Hurme Geometric Sans 1";font-weight:600;}.cls-4{letter-spacing:-0.01em;}.cls-5{letter-spacing:0em;}.cls-6{letter-spacing:-0.01em;}.cls-7{letter-spacing:-0.01em;}.cls-8{letter-spacing:-0.02em;}.cls-9{fill:url(#Nueva_muestra_de_degradado_12);}.cls-10{fill:url(#Nueva_muestra_de_degradado_12-2);}.cls-11{fill:url(#Nueva_muestra_de_degradado_12-3);}.cls-12{fill:url(#Nueva_muestra_de_degradado_12-4);}.cls-13{fill:url(#linear-gradient);}</style><linearGradient id="Nueva_muestra_de_degradado_12" x1="774.42" y1="8.62" x2="806.89" y2="16.17" gradientTransform="matrix(-1, 0, 0, 1, 931.32, 0)" gradientUnits="userSpaceOnUse"><stop offset="0" stop-color="#fff"/><stop offset="0.3" stop-color="#fdfdfd"/><stop offset="0.45" stop-color="#f5f5f6"/><stop offset="0.56" stop-color="#e8e9e9"/><stop offset="0.66" stop-color="#d5d7d8"/><stop offset="0.74" stop-color="#bebfc1"/><stop offset="0.75" stop-color="#bcbec0"/><stop offset="1" stop-color="#6d6e71"/></linearGradient><linearGradient id="Nueva_muestra_de_degradado_12-2" x1="802.91" y1="7.22" x2="821.78" y2="51.01" xlink:href="#Nueva_muestra_de_degradado_12"/><linearGradient id="Nueva_muestra_de_degradado_12-3" x1="918.13" y1="105.44" x2="860.75" y2="75.24" xlink:href="#Nueva_muestra_de_degradado_12"/><linearGradient id="Nueva_muestra_de_degradado_12-4" x1="878.6" y1="126" x2="845.75" y2="92.41" xlink:href="#Nueva_muestra_de_degradado_12"/><linearGradient id="linear-gradient" x1="851.48" y1="41.04" x2="886.96" y2="78.41" gradientTransform="matrix(-1, 0, 0, 1, 931.32, 0)" gradientUnits="userSpaceOnUse"><stop offset="0" stop-color="#fff"/><stop offset="0.19" stop-color="#fbfcfc"/><stop offset="0.37" stop-color="#f0f1f1"/><stop offset="0.54" stop-color="#dedfe0"/><stop offset="0.7" stop-color="#c4c6c8"/><stop offset="0.75" stop-color="#bcbec0"/><stop offset="0.93" stop-color="#6d6e71"/></linearGradient></defs><g id="Layer_2" data-name="Layer 2"><g id="Layer_1-2" data-name="Layer 1"><rect class="cls-1" x="578.42" width="88.24" height="88.24" rx="44.12"/><path class="cls-2" d="M602.93,64.87V36.63h-8.59V30.09h25v6.54h-9.15V64.87Z"/><path class="cls-2" d="M648.73,30.09h7.47L638.51,65.48,619.93,30.09h8.31L638.79,50.5Z"/><text class="cls-3" transform="translate(406.83 182.28)">Un <tspan class="cls-4" x="39.17" y="0">e</tspan><tspan class="cls-5" x="52.19" y="0">spaci</tspan><tspan class="cls-6" x="108.24" y="0">o </tspan><tspan class="cls-5" x="131.55" y="0">de</tspan><tspan class="cls-7" x="159.13" y="0"> </tspan><tspan class="cls-8" x="168.32" y="0">f</tspan><tspan x="175.95" y="0">e</tspan></text><path class="cls-2" d="M173.2,61.6C182,52.26,193,47.68,206,47.68c13.93,0,24.74,5.67,27.49,13.74V49.32h27.3v77c0,21.44-3.48,35.37-16.12,45.08-9,7.14-20.16,10.62-33.53,10.62-18,0-33-4.4-45.26-13l13-19.78c9.34,5.86,18.69,8.79,28.4,8.79,7.88,0,14.29-1.65,18.87-4.76,5.31-3.67,8.07-10.45,8.07-20.16v-2c-3.85,6.59-14.85,11.17-28.23,11.17-13,0-24-4.4-32.79-13.38-8.61-9-13-20.15-13-33.34C160.19,82.13,164.59,70.76,173.2,61.6Zm21.07,50a23.08,23.08,0,0,0,16.67,6.6,23.64,23.64,0,0,0,17-6.6,21,21,0,0,0,7.15-16.12A21.38,21.38,0,0,0,228,79.19a23.06,23.06,0,0,0-17-6.78,22.53,22.53,0,0,0-16.67,6.78,21.72,21.72,0,0,0-6.78,16.31A21.32,21.32,0,0,0,194.27,111.62Z"/><path class="cls-2" d="M271.79,49.32h27.66v52.77c0,11.73,6.78,17,16.86,17s16.86-5.31,16.86-17V49.32h27.66v55.16c0,12.83-4.21,22.72-12.82,29.5-8.43,6.78-19.06,10.26-31.7,10.26S293,140.76,284.43,134c-8.43-6.78-12.64-16.67-12.64-29.5Z"/><path class="cls-2" d="M373.84,141.67V49.32h27.31v92.35Zm.37-101.14L382.64,14h29.5L394.55,40.53Z"/><path class="cls-2" d="M450.44,84.32c13.37-1.28,18.69-2.74,18.69-8.43,0-5.13-4.22-7.69-12.46-7.69-9.71,0-17.78,3.85-24.56,11.54L416,66c9.71-13,23.09-19.6,40.31-19.6,24.74,0,39.58,11.53,39.58,31.15v34.81c0,6.41,2,7.14,7,7.14h.55v21.62c-2.57,1.28-6.23,2-11,2-5.12,0-9.52-1.29-13-4a15.88,15.88,0,0,1-4.21-6.05c-6,7.33-16.49,11-31.15,11-20.52,0-34.44-11.19-34.44-28.22C409.58,96.78,422,87.07,450.44,84.32Zm-2,37.2c13,0,20.71-5.5,20.71-16.31V98.43c-.92.92-2.39,1.47-5.13,2.2l-3.3.55c-2,.18-7.15.91-9.53,1.46-9.53,1.47-15,4-15,10.45C436.14,118.77,440.17,121.52,448.42,121.52Z"/><path class="cls-2" d="M509.26,141.67V14h27.3V60.5c3.66-8.06,13.56-13.19,25.84-13.19,21.8,0,34.26,14.29,34.26,38.3v56.06H569.35V88.9c0-10.81-5.67-17.41-15.75-17.41s-17,7.52-17,18.33v51.85Z"/><polygon class="cls-9" points="122.3 0.23 144.2 7.03 158.16 24.77 129.1 24.01 122.3 0.23"/><polygon class="cls-10" points="140.42 53.46 122.3 0.23 81.91 41 137.78 57.99 140.42 53.46"/><polygon class="cls-11" points="69.83 48.17 0 85.54 83.8 95.73 69.83 48.17"/><polygon class="cls-12" points="70.21 77.61 55.11 119.89 49.83 133.1 74.36 129.33 96.64 111.59 70.21 77.61"/><polygon class="cls-2" points="140.42 53.46 77.76 33.07 8.3 28.16 96.64 111.59 140.42 53.46"/><polygon class="cls-13" points="87.95 57.99 8.3 28.16 96.64 111.59 87.95 57.99"/></g></g></svg>